<svg xmlns="http://www.w3.org/2000/svg" viewBox="0 0 512 512" style="enable-background:new 0 0 512 512" xml:space="preserve"><path style="fill:#98a09b" d="M441.854 135.933H70.146c-10.9 0-19.737 8.838-19.737 19.737v328.945c0 10.901 8.838 19.738 19.737 19.738h50.906v-.06h269.899v.06h50.903c10.901 0 19.737-8.838 19.737-19.738V155.67c0-10.899-8.836-19.737-19.737-19.737z"/><path style="fill:#c6c6c6" d="M443.788 136.031c-9.991.973-17.802 9.393-17.802 19.639v328.945c0 10.248 7.812 18.668 17.802 19.64 9.994-.972 17.803-9.393 17.803-19.64V155.67c0-10.246-7.81-18.666-17.803-19.639z"/><path style="fill:#818984" d="M86.65 484.615V155.67c0-10.9 8.838-19.737 19.736-19.737h-36.24c-10.9 0-19.737 8.838-19.737 19.737v328.945c0 10.901 8.838 19.738 19.737 19.738h36.24c-10.899.001-19.736-8.836-19.736-19.738zM390.954 504.291h36.242v.06h-36.242z"/><path style="fill:#ddd" d="M374 7.645H138.004c-9.364 0-16.952 7.59-16.952 16.953v479.755h269.899V24.598c.001-9.362-7.588-16.953-16.951-16.953z"/><path style="fill:#c6c6c6" d="M147.777 24.598c0-9.363 7.59-16.953 16.953-16.953h-26.726c-9.364 0-16.952 7.59-16.952 16.953v479.755h26.725V24.598z"/><path style="fill:#88dce5" d="M319.05 504.354v-110.91c0-10.9-8.838-19.737-19.737-19.737h-86.621c-10.9 0-19.738 8.838-19.738 19.737v110.91H319.05z"/><path style="fill:#74c4c4" d="M256.002 373.708H212.69c-10.9 0-19.738 8.838-19.738 19.737v110.91h63.049V373.708h.001z"/><path d="M441.964 128.363h-43.433V85.739c0-4.143-3.357-7.5-7.5-7.5a7.499 7.499 0 0 0-7.5 7.5v411.259h-56.943V433.76c0-4.143-3.357-7.5-7.5-7.5s-7.5 3.357-7.5 7.5v63.238h-48.083V381.277h35.835c6.753 0 12.248 5.494 12.248 12.248v13.234c0 4.143 3.357 7.5 7.5 7.5s7.5-3.357 7.5-7.5v-13.234c0-15.025-12.224-27.249-27.249-27.249h-86.672c-15.025 0-27.249 12.224-27.249 27.249v103.474h-56.942V24.463c0-5.218 4.244-9.463 9.461-9.463H374.07c5.217 0 9.462 4.244 9.462 9.463v35.274c0 4.143 3.357 7.5 7.5 7.5s7.5-3.357 7.5-7.5V24.463C398.532 10.975 387.558 0 374.069 0H137.935c-13.488 0-24.461 10.975-24.461 24.463v103.9H70.037c-15.025 0-27.249 12.224-27.249 27.249V484.75c0 15.025 12.224 27.25 27.249 27.25h371.927c15.025 0 27.249-12.225 27.249-27.25V155.612c0-15.025-12.224-27.249-27.249-27.249zM57.789 484.75V155.612c0-6.753 5.494-12.248 12.248-12.248h43.437v353.634H70.037c-6.754.001-12.248-5.493-12.248-12.248zm142.629 12.249V393.525c0-6.753 5.494-12.248 12.248-12.248h35.836v115.722h-48.084zm253.794-12.249c0 6.754-5.494 12.249-12.248 12.249h-43.433V143.364h43.433c6.753 0 12.248 5.494 12.248 12.248V484.75z"/><path d="M99.115 433.714h-25.13a7.499 7.499 0 0 0-7.5 7.5c0 4.143 3.357 7.5 7.5 7.5h25.13c4.143 0 7.5-3.357 7.5-7.5s-3.357-7.5-7.5-7.5zM99.115 398.846h-25.13a7.499 7.499 0 0 0-7.5 7.5c0 4.143 3.357 7.5 7.5 7.5h25.13c4.143 0 7.5-3.357 7.5-7.5s-3.357-7.5-7.5-7.5zM99.115 329.113h-25.13c-4.143 0-7.5 3.357-7.5 7.5s3.357 7.5 7.5 7.5h25.13c4.143 0 7.5-3.357 7.5-7.5s-3.357-7.5-7.5-7.5zM99.115 259.379h-25.13a7.499 7.499 0 0 0-7.5 7.5c0 4.143 3.357 7.5 7.5 7.5h25.13c4.143 0 7.5-3.357 7.5-7.5s-3.357-7.5-7.5-7.5zM99.115 189.645h-25.13a7.499 7.499 0 0 0-7.5 7.5c0 4.143 3.357 7.5 7.5 7.5h25.13c4.143 0 7.5-3.357 7.5-7.5a7.5 7.5 0 0 0-7.5-7.5zM99.115 363.979h-25.13c-4.143 0-7.5 3.357-7.5 7.5s3.357 7.5 7.5 7.5h25.13c4.143 0 7.5-3.357 7.5-7.5s-3.357-7.5-7.5-7.5zM99.115 294.246h-25.13c-4.143 0-7.5 3.357-7.5 7.5s3.357 7.5 7.5 7.5h25.13c4.143 0 7.5-3.357 7.5-7.5s-3.357-7.5-7.5-7.5zM99.115 224.513h-25.13a7.499 7.499 0 0 0-7.5 7.5c0 4.143 3.357 7.5 7.5 7.5h25.13c4.143 0 7.5-3.357 7.5-7.5s-3.357-7.5-7.5-7.5zM438.936 433.714h-25.13a7.499 7.499 0 0 0-7.5 7.5c0 4.143 3.357 7.5 7.5 7.5h25.13c4.143 0 7.5-3.357 7.5-7.5a7.498 7.498 0 0 0-7.5-7.5zM438.936 398.846h-25.13a7.499 7.499 0 0 0-7.5 7.5c0 4.143 3.357 7.5 7.5 7.5h25.13c4.143 0 7.5-3.357 7.5-7.5a7.498 7.498 0 0 0-7.5-7.5zM438.936 329.113h-25.13c-4.143 0-7.5 3.357-7.5 7.5s3.357 7.5 7.5 7.5h25.13c4.143 0 7.5-3.357 7.5-7.5s-3.357-7.5-7.5-7.5zM438.936 259.379h-25.13a7.499 7.499 0 0 0-7.5 7.5c0 4.143 3.357 7.5 7.5 7.5h25.13c4.143 0 7.5-3.357 7.5-7.5a7.498 7.498 0 0 0-7.5-7.5zM438.936 189.645h-25.13a7.499 7.499 0 0 0-7.5 7.5c0 4.143 3.357 7.5 7.5 7.5h25.13c4.143 0 7.5-3.357 7.5-7.5a7.499 7.499 0 0 0-7.5-7.5zM438.936 363.979h-25.13c-4.143 0-7.5 3.357-7.5 7.5s3.357 7.5 7.5 7.5h25.13c4.143 0 7.5-3.357 7.5-7.5s-3.357-7.5-7.5-7.5zM438.936 294.246h-25.13c-4.143 0-7.5 3.357-7.5 7.5s3.357 7.5 7.5 7.5h25.13c4.143 0 7.5-3.357 7.5-7.5s-3.357-7.5-7.5-7.5zM438.936 224.513h-25.13a7.499 7.499 0 0 0-7.5 7.5c0 4.143 3.357 7.5 7.5 7.5h25.13c4.143 0 7.5-3.357 7.5-7.5a7.498 7.498 0 0 0-7.5-7.5zM347.506 259.379H164.494a7.499 7.499 0 0 0-7.5 7.5c0 4.143 3.357 7.5 7.5 7.5h183.011c4.143 0 7.5-3.357 7.5-7.5a7.497 7.497 0 0 0-7.499-7.5zM347.506 189.645H164.494a7.499 7.499 0 0 0-7.5 7.5c0 4.143 3.357 7.5 7.5 7.5h183.011c4.143 0 7.5-3.357 7.5-7.5a7.498 7.498 0 0 0-7.499-7.5zM347.506 294.246H164.494c-4.143 0-7.5 3.357-7.5 7.5s3.357 7.5 7.5 7.5h183.011c4.143 0 7.5-3.357 7.5-7.5s-3.356-7.5-7.499-7.5zM347.506 329.113H164.494c-4.143 0-7.5 3.357-7.5 7.5s3.357 7.5 7.5 7.5h183.011c4.143 0 7.5-3.357 7.5-7.5s-3.356-7.5-7.499-7.5zM347.506 224.513H164.494a7.499 7.499 0 0 0-7.5 7.5c0 4.143 3.357 7.5 7.5 7.5h183.011c4.143 0 7.5-3.357 7.5-7.5a7.497 7.497 0 0 0-7.499-7.5zM347.506 119.911H164.494c-4.143 0-7.5 3.357-7.5 7.5s3.357 7.5 7.5 7.5h183.011c4.143 0 7.5-3.357 7.5-7.5s-3.356-7.5-7.499-7.5zM347.506 154.779H164.494c-4.143 0-7.5 3.357-7.5 7.5s3.357 7.5 7.5 7.5h183.011c4.143 0 7.5-3.357 7.5-7.5s-3.356-7.5-7.499-7.5zM347.506 50.178H164.494c-4.143 0-7.5 3.357-7.5 7.5s3.357 7.5 7.5 7.5h183.011c4.143 0 7.5-3.357 7.5-7.5s-3.356-7.5-7.499-7.5zM347.506 85.045H164.494a7.499 7.499 0 0 0-7.5 7.5c0 4.143 3.357 7.5 7.5 7.5h183.011c4.143 0 7.5-3.357 7.5-7.5a7.497 7.497 0 0 0-7.499-7.5z"/></svg>